<svg xmlns="http://www.w3.org/2000/svg" width="280" height="385" viewBox="0 0 280 385">
  <g id="Group_1" data-name="Group 1" transform="translate(2.834 -161.468)">
    <g id="Rectangle_24" data-name="Rectangle 24" transform="translate(15.166 161.468)" fill="#fff" stroke="#707070" stroke-linecap="round" stroke-width="5">
      <rect width="262" height="369" stroke="none"/>
      <rect x="2.5" y="2.5" width="257" height="364" fill="none"/>
    </g>
    <g id="Rectangle_25" data-name="Rectangle 25" transform="translate(-2.834 177.468)" fill="#fff" stroke="#707070" stroke-linecap="round" stroke-width="5">
      <rect width="262" height="369" stroke="none"/>
      <rect x="2.5" y="2.5" width="257" height="364" fill="none"/>
    </g>
    <line id="Line_5" data-name="Line 5" y2="53.977" transform="translate(41.357 165.116)" fill="none" stroke="#707070" stroke-linecap="round" stroke-width="5"/>
    <line id="Line_6" data-name="Line 6" x1="13.494" y1="18.892" transform="translate(41.357 220.298)" fill="none" stroke="#707070" stroke-linecap="round" stroke-width="5"/>
    <path id="Path_3" data-name="Path 3" d="M-2.15,18.713,11.344,0" transform="translate(57.001 220.476)" fill="none" stroke="#707070" stroke-linecap="round" stroke-width="5"/>
    <line id="Line_7" data-name="Line 7" y2="53.977" transform="translate(68.345 165.116)" fill="none" stroke="#707070" stroke-linecap="round" stroke-width="5"/>
    <text id="CV" transform="translate(54.166 420.468)" fill="#707070" stroke="#707070" stroke-linecap="round" stroke-width="1" font-size="109" font-family="Jost-Light, Jost" font-weight="300"><tspan x="0" y="0">CV</tspan></text>
    <g id="Rectangle_26" data-name="Rectangle 26" transform="translate(112.166 195.468)" fill="#fff" stroke="#707070" stroke-linecap="round" stroke-width="5">
      <rect width="127" height="108" stroke="none"/>
      <rect x="2.5" y="2.5" width="122" height="103" fill="none"/>
    </g>
    <g id="Path_4" data-name="Path 4" transform="translate(134.827 252.462)" fill="#fff" stroke-linecap="round">
      <path d="M 63.94011306762695 46.69631958007812 L 19.18589973449707 46.69631958007812 C 14.51454067230225 46.69631958007812 8.592767715454102 45.94459915161133 6.909620761871338 42.36342620849609 C 5.764647483825684 39.92728042602539 6.693994045257568 36.56699752807617 7.675220489501953 34.17705154418945 C 9.061247825622559 30.80121231079102 11.51087379455566 26.94525337219238 14.75930023193359 23.02603912353516 L 16.95650100708008 20.37512016296387 C 19.27992820739746 17.5719051361084 22.73858070373535 15.26162624359131 26.95853996276855 13.6940393447876 C 31.04428672790527 12.17631912231445 35.74742126464844 11.37409210205078 40.55952835083008 11.37409210205078 C 45.37162017822266 11.37409210205078 50.07476806640625 12.17631912231445 54.16049957275391 13.6940393447876 C 58.38047409057617 15.26162624359131 61.83911514282227 17.5719051361084 64.16254425048828 20.37512016296387 L 66.3597412109375 23.02603912353516 C 69.87908935546875 27.27213287353516 72.56192779541016 31.29433250427246 74.11821746826172 34.65781402587891 C 75.76789855957031 38.22314453125 76.18492889404297 41.07565307617188 75.32423400878906 42.90695953369141 C 73.85223388671875 46.03890609741211 68.32102203369141 46.69631958007812 63.94011306762695 46.69631958007812 Z" stroke="none"/>
      <path d="M 40.55952453613281 13.87406921386719 C 36.04138946533203 13.87406921386719 31.63927459716797 14.62218475341797 27.8290901184082 16.03755187988281 C 24.01947402954102 17.45272064208984 20.92537307739258 19.50426864624023 18.88129425048828 21.9704704284668 L 16.68410491943359 24.62138557434082 C 9.953590393066406 32.74173736572266 8.072105407714844 38.95940399169922 9.172187805175781 41.30003356933594 C 10.02455902099609 43.11360168457031 13.76799011230469 44.19631958007812 19.18589019775391 44.19631958007812 L 63.94010925292969 44.19631958007812 C 67.92380523681641 44.19631958007812 70.15074157714844 43.62831878662109 71.31740570068359 43.15181732177734 C 72.24484252929688 42.77303695678711 72.83168792724609 42.3328857421875 73.06166076660156 41.84356689453125 C 73.25397491455078 41.43440246582031 73.73485565185547 39.78271865844727 71.84932708740234 35.70763397216797 C 70.38236999511719 32.53723526000977 67.81852722167969 28.70366859436035 64.43495941162109 24.62138557434082 L 62.23773956298828 21.9704704284668 C 60.19367218017578 19.50428771972656 57.09957122802734 17.45272064208984 53.28995513916016 16.03755187988281 C 49.47977447509766 14.62218475341797 45.07765579223633 13.87406921386719 40.55952453613281 13.87406921386719 M 40.55952453613281 8.874076843261719 C 50.5866813659668 8.874076843261719 60.61383819580078 12.17596817016602 66.08734130859375 18.77975082397461 L 68.28453826904297 21.43066787719727 C 78.68560791015625 33.97956848144531 85.87867736816406 49.19631958007812 63.94010925292969 49.19631958007812 L 19.18589019775391 49.19631958007812 C -2.752662658691406 49.19631958007812 2.433425903320312 33.97956848144531 12.83451080322266 21.43066787719727 L 15.03170776367188 18.77975082397461 C 20.50520706176758 12.17596817016602 30.53236389160156 8.874076843261719 40.55952453613281 8.874076843261719 Z" stroke="none" fill="#707070"/>
    </g>
    <g id="Ellipse_2" data-name="Ellipse 2" transform="translate(150.419 213.82)" fill="#fff" stroke="#707070" stroke-linecap="round" stroke-width="5">
      <circle cx="25.369" cy="25.369" r="25.369" stroke="none"/>
      <circle cx="25.369" cy="25.369" r="22.869" fill="none"/>
    </g>
  </g>
</svg>
